<?xml version="1.0" standalone="no"?>
<!DOCTYPE svg PUBLIC "-//W3C//DTD SVG 20010904//EN"
 "http://www.w3.org/TR/2001/REC-SVG-20010904/DTD/svg10.dtd">
<svg version="1.0" xmlns="http://www.w3.org/2000/svg"
 width="375.000000pt" height="375.000000pt" viewBox="0 0 375.000000 375.000000"
 preserveAspectRatio="xMidYMid meet">
<metadata>
Created by potrace 1.14, written by Peter Selinger 2001-2017
</metadata>
<g transform="translate(0.000000,375.000000) scale(0.100000,-0.100000)"
fill="#000000" stroke="none">
<path d="M1478 3285 c-2 -2 -35 -6 -73 -8 -39 -3 -82 -10 -96 -15 -15 -6 -30
-8 -33 -5 -3 4 -6 1 -6 -5 0 -7 -8 -12 -18 -12 -27 0 -131 -57 -188 -103 -134
-109 -194 -254 -188 -453 2 -72 0 -81 -27 -119 -55 -76 -79 -151 -75 -235 2
-43 12 -96 23 -125 13 -32 17 -61 14 -80 -9 -41 -7 -64 8 -109 12 -35 12 -40
-5 -49 -11 -6 -41 -34 -69 -64 -27 -29 -55 -53 -60 -53 -6 0 -16 14 -23 32
-11 30 -10 33 19 57 28 25 29 28 18 61 -19 56 -49 91 -95 112 -53 23 -107 28
-151 15 -57 -18 -66 -37 -64 -128 2 -78 -10 -139 -32 -168 -9 -10 -14 3 -25
55 -21 110 -22 115 -37 150 -25 61 -51 44 -108 -70 -65 -132 -71 -305 -12
-382 14 -19 54 -47 92 -66 51 -25 73 -42 92 -74 26 -42 65 -61 112 -55 9 1 38
-16 63 -39 35 -30 56 -40 81 -40 50 0 124 28 176 66 27 20 59 34 75 34 l28 0
-28 -29 c-51 -53 -68 -161 -45 -273 9 -40 21 -61 49 -88 34 -32 38 -40 42
-103 6 -71 19 -97 48 -97 24 0 39 21 44 61 2 19 4 37 5 42 2 13 21 7 21 -8 0
-45 79 -67 107 -29 31 42 -5 99 -58 92 -25 -4 -29 -1 -29 19 0 13 5 23 10 23
6 0 10 7 10 15 0 19 7 19 26 0 36 -36 91 -5 74 41 -11 28 -43 36 -69 17 -20
-13 -21 -12 -21 12 0 40 -37 105 -60 105 -11 0 -20 6 -20 13 1 29 20 41 77 44
32 2 67 5 78 7 11 3 25 5 32 5 26 2 72 62 78 104 7 50 13 80 15 87 1 3 3 10 4
15 2 21 14 19 59 -9 43 -27 59 -46 40 -46 -14 0 -114 -95 -117 -110 -1 -8 -13
-33 -27 -55 -30 -48 -59 -109 -59 -125 0 -6 9 -30 19 -53 11 -24 23 -56 27
-72 4 -17 10 -34 14 -40 9 -13 40 -105 40 -120 0 -6 -38 -39 -85 -74 -47 -34
-85 -69 -85 -77 0 -14 21 -15 409 -16 51 0 97 4 102 9 5 5 11 52 13 104 2 63
11 114 25 153 12 33 20 75 18 95 -4 33 -1 37 55 73 l59 38 108 0 c97 0 110 -2
127 -21 10 -12 52 -48 92 -81 48 -40 80 -75 93 -103 25 -53 114 -139 169 -164
26 -12 59 -42 99 -93 71 -90 92 -101 237 -116 71 -8 196 5 244 25 14 6 28 10
31 9 14 -2 46 49 41 66 -5 21 -73 88 -143 142 -47 37 -59 59 -139 251 -15 37
-31 57 -60 75 -29 18 -41 34 -50 66 -9 32 -25 54 -64 85 -138 114 -203 191
-230 273 -7 20 13 86 26 86 4 0 21 -29 38 -63 32 -67 83 -127 106 -127 8 0 14
-4 14 -10 0 -25 177 -59 295 -56 l100 3 44 -36 44 -36 100 2 c98 2 101 3 133
34 18 18 40 47 49 65 18 38 34 48 86 58 29 5 42 16 68 55 37 59 57 105 82 189
10 34 27 74 38 88 28 35 52 114 49 159 -2 38 -42 84 -94 107 -13 6 -24 14 -24
18 0 4 -33 18 -72 30 -66 21 -149 28 -202 18 -19 -3 -24 3 -50 64 -9 20 -22
40 -28 44 -6 4 -44 6 -84 6 -70 -1 -76 -3 -113 -38 -38 -34 -71 -103 -71 -146
0 -11 -5 -16 -10 -13 -6 4 -8 10 -5 15 3 5 1 11 -5 15 -5 3 -10 15 -10 25 0
26 -35 88 -71 126 -25 26 -30 39 -33 100 -9 151 -40 208 -169 311 -18 15 -148
59 -202 69 -25 4 -57 22 -83 45 -44 39 -164 103 -214 115 -28 6 -50 26 -46 40
8 32 -41 151 -83 198 -59 68 -223 131 -369 142 -36 3 -73 7 -82 8 -9 2 -18 2
-20 1z"/>
</g>
</svg>
